<mxfile host="Electron" agent="Mozilla/5.0 (Windows NT 10.0; Win64; x64) AppleWebKit/537.36 (KHTML, like Gecko) draw.io/26.2.2 Chrome/134.0.6998.178 Electron/35.1.2 Safari/537.36" version="26.2.2">
  <diagram name="Page-1" id="y3V8kFdGDBWRUhQxCQW1">
    <mxGraphModel dx="1428" dy="883" grid="1" gridSize="10" guides="1" tooltips="1" connect="1" arrows="1" fold="1" page="1" pageScale="1" pageWidth="850" pageHeight="1100" math="0" shadow="0">
      <root>
        <mxCell id="0" />
        <mxCell id="1" parent="0" />
        <mxCell id="e8g9pAyIv5WsLFoU4A_s-12" style="edgeStyle=orthogonalEdgeStyle;rounded=0;orthogonalLoop=1;jettySize=auto;html=1;exitX=1;exitY=0.5;exitDx=0;exitDy=0;entryX=0.25;entryY=0;entryDx=0;entryDy=0;" edge="1" parent="1" source="e8g9pAyIv5WsLFoU4A_s-1" target="e8g9pAyIv5WsLFoU4A_s-5">
          <mxGeometry relative="1" as="geometry" />
        </mxCell>
        <mxCell id="e8g9pAyIv5WsLFoU4A_s-1" value="ReqiF" style="rounded=0;whiteSpace=wrap;html=1;" vertex="1" parent="1">
          <mxGeometry x="40" y="120" width="120" height="60" as="geometry" />
        </mxCell>
        <mxCell id="e8g9pAyIv5WsLFoU4A_s-13" style="edgeStyle=orthogonalEdgeStyle;rounded=0;orthogonalLoop=1;jettySize=auto;html=1;exitX=1;exitY=0.5;exitDx=0;exitDy=0;entryX=0;entryY=0.25;entryDx=0;entryDy=0;" edge="1" parent="1" source="e8g9pAyIv5WsLFoU4A_s-2" target="e8g9pAyIv5WsLFoU4A_s-5">
          <mxGeometry relative="1" as="geometry" />
        </mxCell>
        <mxCell id="e8g9pAyIv5WsLFoU4A_s-2" value="Csv/ xlsx" style="rounded=0;whiteSpace=wrap;html=1;" vertex="1" parent="1">
          <mxGeometry x="40" y="200" width="120" height="60" as="geometry" />
        </mxCell>
        <mxCell id="e8g9pAyIv5WsLFoU4A_s-3" value="pdf" style="rounded=0;whiteSpace=wrap;html=1;" vertex="1" parent="1">
          <mxGeometry x="40" y="280" width="120" height="60" as="geometry" />
        </mxCell>
        <mxCell id="e8g9pAyIv5WsLFoU4A_s-15" style="edgeStyle=orthogonalEdgeStyle;rounded=0;orthogonalLoop=1;jettySize=auto;html=1;exitX=1;exitY=0.5;exitDx=0;exitDy=0;entryX=0.25;entryY=1;entryDx=0;entryDy=0;" edge="1" parent="1" source="e8g9pAyIv5WsLFoU4A_s-4" target="e8g9pAyIv5WsLFoU4A_s-5">
          <mxGeometry relative="1" as="geometry" />
        </mxCell>
        <mxCell id="e8g9pAyIv5WsLFoU4A_s-4" value="word" style="rounded=0;whiteSpace=wrap;html=1;" vertex="1" parent="1">
          <mxGeometry x="40" y="360" width="120" height="60" as="geometry" />
        </mxCell>
        <mxCell id="e8g9pAyIv5WsLFoU4A_s-16" style="edgeStyle=orthogonalEdgeStyle;rounded=0;orthogonalLoop=1;jettySize=auto;html=1;exitX=1;exitY=0.5;exitDx=0;exitDy=0;entryX=0;entryY=0.5;entryDx=0;entryDy=0;" edge="1" parent="1" source="e8g9pAyIv5WsLFoU4A_s-5" target="e8g9pAyIv5WsLFoU4A_s-6">
          <mxGeometry relative="1" as="geometry" />
        </mxCell>
        <mxCell id="e8g9pAyIv5WsLFoU4A_s-5" value="req_ti_jsonl.py" style="shape=process;whiteSpace=wrap;html=1;backgroundOutline=1;" vertex="1" parent="1">
          <mxGeometry x="200" y="240" width="120" height="60" as="geometry" />
        </mxCell>
        <mxCell id="e8g9pAyIv5WsLFoU4A_s-17" style="edgeStyle=orthogonalEdgeStyle;rounded=0;orthogonalLoop=1;jettySize=auto;html=1;exitX=1;exitY=0.5;exitDx=0;exitDy=0;entryX=0;entryY=0.5;entryDx=0;entryDy=0;" edge="1" parent="1" source="e8g9pAyIv5WsLFoU4A_s-6" target="e8g9pAyIv5WsLFoU4A_s-7">
          <mxGeometry relative="1" as="geometry" />
        </mxCell>
        <mxCell id="e8g9pAyIv5WsLFoU4A_s-6" value="requirements_for_llm.jsonl" style="rounded=0;whiteSpace=wrap;html=1;" vertex="1" parent="1">
          <mxGeometry x="365" y="240" width="195" height="60" as="geometry" />
        </mxCell>
        <mxCell id="e8g9pAyIv5WsLFoU4A_s-18" style="edgeStyle=orthogonalEdgeStyle;rounded=0;orthogonalLoop=1;jettySize=auto;html=1;exitX=1;exitY=0.5;exitDx=0;exitDy=0;entryX=0;entryY=0.5;entryDx=0;entryDy=0;" edge="1" parent="1" source="e8g9pAyIv5WsLFoU4A_s-7" target="e8g9pAyIv5WsLFoU4A_s-8">
          <mxGeometry relative="1" as="geometry" />
        </mxCell>
        <mxCell id="e8g9pAyIv5WsLFoU4A_s-7" value="train_req_model.py" style="shape=process;whiteSpace=wrap;html=1;backgroundOutline=1;" vertex="1" parent="1">
          <mxGeometry x="610" y="240" width="170" height="60" as="geometry" />
        </mxCell>
        <mxCell id="e8g9pAyIv5WsLFoU4A_s-19" style="edgeStyle=orthogonalEdgeStyle;rounded=0;orthogonalLoop=1;jettySize=auto;html=1;exitX=1;exitY=0.25;exitDx=0;exitDy=0;entryX=0;entryY=0.5;entryDx=0;entryDy=0;" edge="1" parent="1" source="e8g9pAyIv5WsLFoU4A_s-8" target="e8g9pAyIv5WsLFoU4A_s-9">
          <mxGeometry relative="1" as="geometry" />
        </mxCell>
        <mxCell id="e8g9pAyIv5WsLFoU4A_s-8" value="bert_req_eval_model" style="rounded=0;whiteSpace=wrap;html=1;" vertex="1" parent="1">
          <mxGeometry x="820" y="240" width="120" height="60" as="geometry" />
        </mxCell>
        <mxCell id="e8g9pAyIv5WsLFoU4A_s-21" style="edgeStyle=orthogonalEdgeStyle;rounded=0;orthogonalLoop=1;jettySize=auto;html=1;exitX=1;exitY=0.5;exitDx=0;exitDy=0;entryX=0;entryY=0.5;entryDx=0;entryDy=0;" edge="1" parent="1" source="e8g9pAyIv5WsLFoU4A_s-9" target="e8g9pAyIv5WsLFoU4A_s-11">
          <mxGeometry relative="1" as="geometry" />
        </mxCell>
        <mxCell id="e8g9pAyIv5WsLFoU4A_s-9" value="test_req_model.py&lt;div&gt;In Command line&lt;/div&gt;" style="shape=process;whiteSpace=wrap;html=1;backgroundOutline=1;" vertex="1" parent="1">
          <mxGeometry x="1010" y="180" width="150" height="60" as="geometry" />
        </mxCell>
        <mxCell id="e8g9pAyIv5WsLFoU4A_s-22" style="edgeStyle=orthogonalEdgeStyle;rounded=0;orthogonalLoop=1;jettySize=auto;html=1;exitX=1;exitY=0.5;exitDx=0;exitDy=0;entryX=0;entryY=0.5;entryDx=0;entryDy=0;" edge="1" parent="1" source="e8g9pAyIv5WsLFoU4A_s-10" target="e8g9pAyIv5WsLFoU4A_s-11">
          <mxGeometry relative="1" as="geometry" />
        </mxCell>
        <mxCell id="e8g9pAyIv5WsLFoU4A_s-10" value="req_gui.py&lt;div&gt;&lt;br&gt;&lt;/div&gt;&lt;div&gt;Provide GUI&lt;/div&gt;" style="shape=process;whiteSpace=wrap;html=1;backgroundOutline=1;" vertex="1" parent="1">
          <mxGeometry x="1010" y="270" width="150" height="60" as="geometry" />
        </mxCell>
        <mxCell id="e8g9pAyIv5WsLFoU4A_s-11" value="Prediction" style="ellipse;whiteSpace=wrap;html=1;" vertex="1" parent="1">
          <mxGeometry x="1215" y="220" width="120" height="80" as="geometry" />
        </mxCell>
        <mxCell id="e8g9pAyIv5WsLFoU4A_s-14" style="edgeStyle=orthogonalEdgeStyle;rounded=0;orthogonalLoop=1;jettySize=auto;html=1;exitX=1;exitY=0.5;exitDx=0;exitDy=0;entryX=0;entryY=0.617;entryDx=0;entryDy=0;entryPerimeter=0;" edge="1" parent="1" source="e8g9pAyIv5WsLFoU4A_s-3" target="e8g9pAyIv5WsLFoU4A_s-5">
          <mxGeometry relative="1" as="geometry" />
        </mxCell>
        <mxCell id="e8g9pAyIv5WsLFoU4A_s-20" style="edgeStyle=orthogonalEdgeStyle;rounded=0;orthogonalLoop=1;jettySize=auto;html=1;exitX=1;exitY=0.75;exitDx=0;exitDy=0;entryX=-0.02;entryY=0.633;entryDx=0;entryDy=0;entryPerimeter=0;" edge="1" parent="1" source="e8g9pAyIv5WsLFoU4A_s-8" target="e8g9pAyIv5WsLFoU4A_s-10">
          <mxGeometry relative="1" as="geometry" />
        </mxCell>
        <mxCell id="e8g9pAyIv5WsLFoU4A_s-23" value="We currently train complete model&lt;div&gt;&lt;br&gt;&lt;/div&gt;&lt;div&gt;We should only focus on training 3 to 4 layers of the model&lt;/div&gt;&lt;div&gt;&lt;br&gt;&lt;/div&gt;&lt;div&gt;Check the model and number of layers&lt;/div&gt;" style="text;html=1;align=center;verticalAlign=middle;whiteSpace=wrap;rounded=0;" vertex="1" parent="1">
          <mxGeometry x="610" y="340" width="330" height="120" as="geometry" />
        </mxCell>
        <mxCell id="e8g9pAyIv5WsLFoU4A_s-24" value="Data augumentation without changing the label" style="rounded=0;whiteSpace=wrap;html=1;" vertex="1" parent="1">
          <mxGeometry x="250" y="150" width="200" height="60" as="geometry" />
        </mxCell>
        <mxCell id="e8g9pAyIv5WsLFoU4A_s-25" style="edgeStyle=orthogonalEdgeStyle;rounded=0;orthogonalLoop=1;jettySize=auto;html=1;exitX=0.5;exitY=0;exitDx=0;exitDy=0;entryX=0.07;entryY=1.033;entryDx=0;entryDy=0;entryPerimeter=0;" edge="1" parent="1" source="e8g9pAyIv5WsLFoU4A_s-5" target="e8g9pAyIv5WsLFoU4A_s-24">
          <mxGeometry relative="1" as="geometry" />
        </mxCell>
        <mxCell id="e8g9pAyIv5WsLFoU4A_s-26" style="edgeStyle=orthogonalEdgeStyle;rounded=0;orthogonalLoop=1;jettySize=auto;html=1;exitX=0.25;exitY=1;exitDx=0;exitDy=0;entryX=0.833;entryY=-0.033;entryDx=0;entryDy=0;entryPerimeter=0;" edge="1" parent="1" source="e8g9pAyIv5WsLFoU4A_s-24" target="e8g9pAyIv5WsLFoU4A_s-5">
          <mxGeometry relative="1" as="geometry" />
        </mxCell>
      </root>
    </mxGraphModel>
  </diagram>
</mxfile>
